<?xml version="1.0" encoding="utf-8"?>
<!-- Generator: Adobe Illustrator 22.1.0, SVG Export Plug-In . SVG Version: 6.00 Build 0)  -->
<svg version="1.1" id="_x31_27be8d2-bc46-4227-94f8-13f0122bf765"
	 xmlns="http://www.w3.org/2000/svg" xmlns:xlink="http://www.w3.org/1999/xlink" x="0px" y="0px" viewBox="0 0 1171.9 312.9"
	 style="enable-background:new 0 0 1171.9 312.9;" xml:space="preserve">
<style type="text/css">
	.st0{fill:#FFFFFF;}
</style>
<title>Hashcorp-dark</title>
<g id="_x32_b22721d-2800-48e8-b991-470ac06c2d4e">
	<g id="_x39_99a5d2f-6962-46b4-855b-1dc5b0188eea">
		<g id="_x37_4bdee96-a9b9-4087-a0bf-b727bbe2d527">
			<g id="f5b0d29b-2211-4cb3-ac26-1fa4bb0858b6">
				<path class="st0" d="M250.2,226.8L250.2,226.8c-8.4,0-15.1,6.8-15.1,15.2c0,0.3,0,0.6,0.1,1l-56.6,23.4
					c-4.9-6.2-13.8-7.6-20.4-3.1c-1.2,0.8-2.3,1.8-3.2,3l-57.5-23.8c0-0.4,0.1-0.9,0.1-1.3c0-8.4-6.8-15.1-15.1-15.1
					c-0.5,0-1.1,0-1.6,0.1l-23.6-57c6.6-4.3,8.7-13,4.9-19.9c-1.2-2.2-3-4-5.1-5.4l23.5-56.7c0.8,0.2,1.7,0.2,2.6,0.2l0,0
					c8.3,0,15-6.7,15.1-15c0-0.8,0-1.6-0.1-2.4l57.2-23.7c4.7,6.3,13.5,7.9,20.2,3.7c1.4-0.9,2.6-2,3.6-3.3l57,23.4
					c-0.1,0.6-0.1,1.1-0.1,1.7c-0.1,8.4,6.7,15.3,15.1,15.4h0.1c8.4,0,15.3-6.8,15.3-15.3s-6.8-15.3-15.3-15.3
					c-4.5,0-8.8,2-11.7,5.4l-56.9-23.5c0-0.5,0.1-0.9,0.1-1.4c0-8.3-6.8-15.1-15.1-15.1l0,0c-8.3,0-15.1,6.8-15.1,15.1
					c0,0.3,0,0.6,0,0.9l-58,24c-5.7-6-15.3-6.3-21.3-0.5c-5.6,5.3-6.3,14-1.6,20.1c0.4,0.5,0.9,1,1.4,1.5l-24.1,58.2
					c-8.4,0.2-14.9,7.2-14.7,15.6c0.2,8.1,6.7,14.5,14.8,14.7l0,0l24,57.8c-6.6,5.1-7.9,14.5-2.8,21.2c5.1,6.6,14.5,7.9,21.2,2.8
					c1.1-0.8,2.2-1.8,3.1-2.9l57.4,23.8c-0.9,8.3,5,15.8,13.3,16.7c7.9,0.9,15.1-4.5,16.5-12.2c0-0.2,0.1-0.4,0.1-0.6
					c0.1-0.8,0.2-1.7,0.2-2.5c0-0.4,0-0.9-0.1-1.3l56.4-23.5c5.1,6.6,14.5,7.9,21.1,2.8c6.6-5.1,7.9-14.5,2.8-21.1
					C259.3,229,254.9,226.8,250.2,226.8L250.2,226.8z M250.2,248.3L250.2,248.3c-3.6,0-6.4-2.9-6.4-6.5c0,0,0,0,0,0
					c0-0.1,0-0.1,0-0.2l0.1-0.2c0.5-3.2,3.2-5.5,6.3-5.5c0.3,0,0.6,0,0.9,0.1c3.4,0.4,5.9,3.4,5.5,6.8
					C256.2,246,253.4,248.4,250.2,248.3L250.2,248.3z M173.2,276c-0.1,3.5-2.9,6.2-6.4,6.2l0,0c-3.5,0-6.3-2.8-6.4-6.2v-0.3
					c0.1-3.5,3.1-6.3,6.7-6.2c3.3,0.1,6,2.8,6.2,6.2L173.2,276z M88.9,240.8v0.3c-0.1,3.4-3,6.2-6.4,6.1s-6.2-3-6.1-6.4
					s3-6.2,6.4-6.1C86.2,234.8,88.8,237.5,88.9,240.8z M42.8,155.1c0.7-2.9,3.2-4.9,6.2-4.9c0.5,0,1,0.1,1.5,0.2l0.3,0.1
					c1.6,0.4,3,1.4,3.9,2.9c0.9,1.5,1.1,3.2,0.7,4.9c-0.8,2.8-3.3,4.7-6.2,4.8c-0.5,0-1.1-0.1-1.6-0.2
					C44.1,161.9,41.9,158.5,42.8,155.1z M76.8,72.2c-0.2-3.5,2.6-6.5,6.1-6.7h0.3c3.4,0,6.2,2.7,6.4,6.1v0.6c0,3.6-2.9,6.4-6.4,6.4
					c0,0,0,0,0,0c-0.2,0-0.4,0-0.6,0h-0.2c-3.2-0.3-5.6-3-5.6-6.2V72.2z M161,37.2c0-0.2,0-0.3,0-0.5v-0.2c0.3-3.3,3-5.8,6.3-5.8
					l0,0c3.5,0,6.3,2.7,6.4,6.2v0.3c0.1,3.5-2.7,6.5-6.2,6.6c-3.5,0.1-6.5-2.7-6.6-6.2C160.9,37.5,160.9,37.4,161,37.2L161,37.2z
					 M251,65.4c3.5,0,6.4,2.9,6.4,6.4c0,3.5-2.9,6.4-6.4,6.4c-3.5,0-6.4-2.9-6.4-6.4c0,0,0,0,0-0.1C244.6,68.2,247.5,65.4,251,65.4z
					"/>
				<path class="st0" d="M219.4,205.5L219.4,205.5c-0.9-7.3-5.9-13.3-12.9-15.5v-22.8c5.6-2.6,8.5-8.8,7-14.8c-1-3.7-3.5-6.8-7-8.4
					v-28.9c2.4-1.1,4.4-2.9,5.7-5.1c3.5-6.1,1.5-13.8-4.6-17.4s-13.8-1.5-17.4,4.6c-3.5,6.1-1.5,13.8,4.6,17.4
					c0.6,0.3,1.2,0.6,1.9,0.9v28.2c-2.7,1.1-5,3-6.5,5.6h-53.4c-1.3-2.4-3.4-4.3-5.9-5.4v-22.6c9.8-2.7,15.5-12.9,12.7-22.7
					s-12.9-15.5-22.7-12.7c-8.9,2.5-14.5,11.1-13.2,20.2c1,7.2,6.2,13.2,13.2,15.2v22.4c-6.5,2.6-9.7,10.1-7,16.6
					c1.3,3.2,3.8,5.7,7,7v28.4c-2.4,1-4.4,2.7-5.8,4.8c-3.9,5.9-2.3,13.8,3.6,17.7s13.8,2.3,17.7-3.6c1.9-2.9,2.6-6.3,1.8-9.7
					c-0.9-4.1-3.6-7.5-7.4-9.1v-28.6c2.5-1.1,4.6-3,6-5.4h53.4c1.5,2.5,3.7,4.5,6.4,5.6v22.3c-9.9,2.5-15.9,12.5-13.4,22.4
					c2.1,8.2,9.5,14,18,14c0.7,0,1.4-0.1,2.1-0.1c4.9-0.5,9.3-3,12.4-6.9C218.6,215.1,219.9,210.3,219.4,205.5z M117.6,103.5
					c0-4.4,3.6-8,8-8l0,0c2.1,0,4.2,0.9,5.7,2.5c1.5,1.5,2.4,3.5,2.3,5.7c0,4.4-3.5,7.9-7.8,7.9h-0.1
					C121.2,111.6,117.6,108,117.6,103.5C117.6,103.6,117.6,103.6,117.6,103.5z M131.8,207.6c0,3.3-2.7,6-6,6s-6-2.7-6-6s2.7-6,6-6
					S131.8,204.3,131.8,207.6z M125.7,161.5c-3.3,0-6-2.7-6-6c0-3.3,2.7-6,6-6c3.3,0,6,2.7,6,6C131.7,158.9,129,161.5,125.7,161.5
					C125.7,161.6,125.7,161.6,125.7,161.5L125.7,161.5z M195.1,103.6c0-3.3,2.7-6,6-6s6,2.7,6,6s-2.7,6-6,6
					C197.8,109.6,195.1,106.9,195.1,103.6L195.1,103.6z M195,155.7c0-3.3,2.7-6,6-6s6,2.7,6,6s-2.7,6-6,6
					C197.7,161.7,195.1,159,195,155.7L195,155.7z M206.8,213.1c-1.5,1.5-3.5,2.4-5.7,2.4l0,0c-4.4,0-8-3.6-8-8s3.6-8,8-8l0,0
					c4.4,0,8,3.5,8.1,7.9C209.2,209.5,208.4,211.6,206.8,213.1L206.8,213.1z"/>
			</g>
		</g>
	</g>
</g>
<g>
	<g>
		<path class="st0" d="M313.3,113.8c0-2.8-1.5-4.2-4.2-4.2H301V93.4h19.1c8.5,0,12.1,3.6,12.1,12.1v46.6H400v-46.6
			c0-8.5,3.6-12.1,12.1-12.1h19.1v16.2H423c-2.6,0-4.2,1.3-4.2,4.2v112.9H400v-58.5h-67.8v58.5h-18.9V113.8z"/>
		<path class="st0" d="M501,167.2h4.2v-0.9c0-16.8-6.2-22.9-21.2-22.9c-4.5,0-15.7,1.1-15.7,7.4v5.5h-17.2v-9.4
			c0-15.7,23.8-17.9,33.1-17.9c31,0,39.3,16.2,39.3,37.4v40.6c0,2.8,1.5,4.2,4.2,4.2h7.7v15.7h-17.2c-8.5,0-11.9-4.2-11.9-11
			c0-3.2,0.4-5.7,0.4-5.7h-0.4c0,0-7.6,18.9-30.4,18.9c-16.4,0-32.5-10-32.5-29.1C443.4,169.1,485,167.2,501,167.2z M479.9,214.3
			c15.5,0,25.5-16.2,25.5-30.4v-3.2h-4.7c-13.8,0-38.7,0.8-38.7,18.3C461.9,206.7,467.8,214.3,479.9,214.3z"/>
		<path class="st0" d="M553.7,199.9c0,0,11.3,14.2,28.9,14.2c8.9,0,16.6-4,16.6-12.3c0-17.2-52.1-15.3-52.1-46.1
			c0-18.3,16.1-26.8,35.5-26.8c11.5,0,31.4,4,31.4,18.5v9.1h-16.4v-4.7c0-5.7-8.5-8.1-14.4-8.1c-10.8,0-17.8,3.8-17.8,11.3
			c0,18.1,52.1,14.2,52.1,46.1c0,17-15.1,28-35.1,28c-25.5,0-38.1-16.8-38.1-16.8L553.7,199.9z"/>
		<path class="st0" d="M640.2,113.2c0-2.8-1.5-4.2-4.2-4.2h-7.7V93.4h18.1c8.5,0,12.1,3.6,12.1,11.7v37.2c0,4.5-0.4,7.9-0.4,7.9h0.4
			c4.2-9.3,16.4-21.3,35.5-21.3c22.5,0,32.7,12.3,32.7,36.6v41.4c0,2.8,1.5,4.2,4.2,4.2h7.7v15.7h-17.9c-8.5,0-12.1-3.6-12.1-12.1
			v-44.9c0-13.4-2.8-24-18.1-24c-14.5,0-26.3,9.8-30.2,23.6c-1.3,3.8-1.7,8.1-1.7,12.7v44.8h-18.3V113.2z"/>
		<path class="st0" d="M815.1,91.7c18.9,0,49.7,8.1,49.7,28.1v11h-12.5v-7.4c0-12.5-21.5-19.3-36.8-19.3c-29.5,0-52.1,23-52.1,55.1
			c0,31.7,22.5,57.2,52.7,57.2c27.4,0,43.4-18.7,43.4-18.7l7.6,9.6c0,0-18.3,21.5-51.2,21.5c-38.9,0-66.3-31-66.3-69.7
			C749.6,121,777.7,91.7,815.1,91.7z"/>
		<path class="st0" d="M931,129.5c27.8,0,50.2,21.2,50.2,49.3c0,28.7-22.5,50.2-50,50.2c-27.8,0-50.2-21.5-50.2-50.2
			C881,150.6,903.5,129.5,931,129.5z M931.2,217.5c20.2,0,36.8-16.6,36.8-38.7c0-21.5-16.6-37.6-36.8-37.6c-20.4,0-37,16.1-37,37.6
			C894.2,200.9,910.8,217.5,931.2,217.5z"/>
		<path class="st0" d="M1005.3,147c0-2.6-1.5-4.2-4.2-4.2h-7.9v-11.1h13.2c7.9,0,11.5,3.2,11.5,10.8v6.4c0,4-0.4,7.2-0.4,7.2h0.4
			c4.5-14.4,15.1-25.3,30-25.3c2.6,0,5.1,0.6,5.1,0.6V144c0,0-2.3-0.4-4.7-0.4c-13.4,0-23.4,10.6-27.6,24.6
			c-1.9,6-2.6,12.5-2.6,18.5v40h-12.8V147z"/>
		<path class="st0" d="M1075,147c0-2.6-1.5-4.2-4.2-4.2h-7.9v-11.1h13c8.1,0,11.3,3.4,11.3,10c0,3.8-0.2,6.4-0.2,6.4h0.4
			c0,0,7.6-18.7,32.7-18.7c25.5,0,41.4,20.4,41.4,49.9c0,30-17.9,49.7-42.5,49.7c-23.2,0-31.2-17.9-31.2-17.9h-0.4
			c0,0,0.4,3.4,0.4,8.3v45.1H1075V147z M1117.6,217.7c16.8,0,30.6-14.2,30.6-38.3c0-23.2-12.3-38.1-30-38.1
			c-15.9,0-30.8,11.3-30.8,38.3C1087.4,198.6,1097.8,217.7,1117.6,217.7z"/>
	</g>
</g>
</svg>
